<svg xmlns="http://www.w3.org/2000/svg" width="34.16" height="34.281" viewBox="0 0 34.16 34.281">
  <metadata><?xpacket begin="﻿" id="W5M0MpCehiHzreSzNTczkc9d"?>
<x:xmpmeta xmlns:x="adobe:ns:meta/" x:xmptk="Adobe XMP Core 5.6-c142 79.160924, 2017/07/13-01:06:39        ">
   <rdf:RDF xmlns:rdf="http://www.w3.org/1999/02/22-rdf-syntax-ns#">
      <rdf:Description rdf:about=""/>
   </rdf:RDF>
</x:xmpmeta>
<?xpacket end="w"?></metadata>
<defs>
    <style>
      .cls-1 {
        fill: #ae8931;
        fill-rule: evenodd;
      }
    </style>
  </defs>
  <path class="cls-1" d="M1370.01,78.513a3.353,3.353,0,0,0-2.44-1.122,3.493,3.493,0,0,0-2.47,1.114l-2.28,2.28-0.55-.29c-0.26-.13-0.51-0.253-0.72-0.383a24.7,24.7,0,0,1-5.94-5.428,14.737,14.737,0,0,1-1.95-3.083c0.59-.542,1.14-1.107,1.67-1.65,0.21-.2.41-0.412,0.61-0.615a3.319,3.319,0,0,0,0-5.007l-1.97-1.976c-0.22-.225-0.46-0.456-0.67-0.688-0.44-.449-0.89-0.912-1.36-1.346a3.417,3.417,0,0,0-2.42-1.064,3.519,3.519,0,0,0-2.45,1.064l-0.02.014-2.45,2.483a5.246,5.246,0,0,0-1.57,3.365,12.872,12.872,0,0,0,.92,5.37,31.135,31.135,0,0,0,5.53,9.234,34.01,34.01,0,0,0,11.31,8.88,17.614,17.614,0,0,0,6.36,1.882c0.15,0.007.31,0.015,0.45,0.015a5.445,5.445,0,0,0,4.17-1.794c0.01-.015.02-0.022,0.03-0.037a16.318,16.318,0,0,1,1.26-1.31c0.31-.3.63-0.608,0.94-0.934a3.591,3.591,0,0,0,1.09-2.5,3.476,3.476,0,0,0-1.11-2.482Zm2.59,7.62c-0.01,0-.01.008,0,0-0.28.3-.57,0.579-0.88,0.883a17.639,17.639,0,0,0-1.39,1.447,3.484,3.484,0,0,1-2.72,1.15c-0.11,0-.22,0-0.33-0.007a15.548,15.548,0,0,1-5.63-1.694,32.043,32.043,0,0,1-10.66-8.366,29.217,29.217,0,0,1-5.2-8.677,10.355,10.355,0,0,1-.81-4.53,3.314,3.314,0,0,1,1-2.149l2.46-2.468a1.636,1.636,0,0,1,1.1-.514,1.542,1.542,0,0,1,1.05.506c0.01,0.007.01,0.015,0.02,0.022,0.44,0.412.86,0.839,1.3,1.295,0.22,0.232.46,0.464,0.69,0.7l1.97,1.976a1.389,1.389,0,0,1,0,2.244c-0.21.209-.41,0.419-0.62,0.622-0.61.622-1.19,1.2-1.82,1.766-0.01.014-.02,0.021-0.03,0.035a1.484,1.484,0,0,0-.38,1.643,0.161,0.161,0,0,1,.02.065,16.07,16.07,0,0,0,2.34,3.814v0.008a26.672,26.672,0,0,0,6.42,5.847,9.083,9.083,0,0,0,.89.484c0.26,0.13.5,0.254,0.71,0.385,0.03,0.014.06,0.036,0.09,0.05a1.525,1.525,0,0,0,.71.181,1.541,1.541,0,0,0,1.1-.5l2.47-2.475a1.607,1.607,0,0,1,1.09-.543,1.458,1.458,0,0,1,1.04.528c0.01,0.007.01,0.007,0.01,0.015l3.98,3.987A1.427,1.427,0,0,1,1372.6,86.133Zm-11.14-20.7a9.288,9.288,0,0,1,7.57,7.585,0.969,0.969,0,0,0,.96.811,1.375,1.375,0,0,0,.17-0.015,0.977,0.977,0,0,0,.8-1.129,11.259,11.259,0,0,0-9.16-9.177,0.974,0.974,0,0,0-1.12.8A0.96,0.96,0,0,0,1361.46,65.428Zm15.69,6.969a18.525,18.525,0,0,0-15.08-15.11,0.973,0.973,0,0,0-1.12.8,0.988,0.988,0,0,0,.8,1.129,16.544,16.544,0,0,1,13.48,13.5,0.969,0.969,0,0,0,.96.811,1.023,1.023,0,0,0,.16-0.015A0.963,0.963,0,0,0,1377.15,72.4Z" transform="translate(-1343 -57.281)"/>
</svg>
