<svg xmlns="http://www.w3.org/2000/svg" width="21" height="22.938" viewBox="0 0 21 22.938">
  <metadata><?xpacket begin="﻿" id="W5M0MpCehiHzreSzNTczkc9d"?>
<x:xmpmeta xmlns:x="adobe:ns:meta/" x:xmptk="Adobe XMP Core 5.6-c142 79.160924, 2017/07/13-01:06:39        ">
   <rdf:RDF xmlns:rdf="http://www.w3.org/1999/02/22-rdf-syntax-ns#">
      <rdf:Description rdf:about=""/>
   </rdf:RDF>
</x:xmpmeta>
                                                                                                    
                                                                                                    
                                                                                                    
                                                                                                    
                                                                                                    
                                                                                                    
                                                                                                    
                                                                                                    
                                                                                                    
                                                                                                    
                                                                                                    
                                                                                                    
                                                                                                    
                                                                                                    
                                                                                                    
                                                                                                    
                                                                                                    
                                                                                                    
                                                                                                    
                                                                                                    
                           
<?xpacket end="w"?></metadata>
<defs>
    <style>
      .cls-1 {
        fill: #b17f21;
        fill-rule: evenodd;
      }
    </style>
  </defs>
  <path id="Forma_1" data-name="Forma 1" class="cls-1" d="M941.5,373.811l-8.715-8.715a2.992,2.992,0,0,0-2.235-.945,2.919,2.919,0,0,0-2.94,2.94,2.988,2.988,0,0,0,.945,2.235l6.15,6.15a0.459,0.459,0,0,0,.33.15,2.1,2.1,0,0,0,1.169-1.17,0.459,0.459,0,0,0-.15-0.33l-6.149-6.15a1.278,1.278,0,0,1-.375-0.885,0.975,0.975,0,0,1,1-1,1.286,1.286,0,0,1,.9.359l8.715,8.715a2.989,2.989,0,0,1,.945,2.175,2.156,2.156,0,0,1-2.22,2.221,2.99,2.99,0,0,1-2.175-.946l-11.64-11.655a3.707,3.707,0,0,1-1.14-2.715,3.751,3.751,0,0,1,1.1-2.715A3.6,3.6,0,0,1,927.7,360.4a3.782,3.782,0,0,1,2.715,1.155l9.09,9.105a0.474,0.474,0,0,0,.345.15,2.058,2.058,0,0,0,1.155-1.155,0.459,0.459,0,0,0-.15-0.33l-9.075-9.09a5.644,5.644,0,0,0-4.1-1.695,5.463,5.463,0,0,0-4.035,1.665,5.538,5.538,0,0,0-1.65,4.05,5.609,5.609,0,0,0,1.7,4.065l11.655,11.64a4.825,4.825,0,0,0,3.525,1.5A4.048,4.048,0,0,0,943,377.335,4.757,4.757,0,0,0,941.5,373.811Z" transform="translate(-922 -358.531)"/>
</svg>
