<svg xmlns="http://www.w3.org/2000/svg" width="58.434" height="57.97" viewBox="0 0 58.434 57.97">
  <metadata><?xpacket begin="﻿" id="W5M0MpCehiHzreSzNTczkc9d"?>
<x:xmpmeta xmlns:x="adobe:ns:meta/" x:xmptk="Adobe XMP Core 5.6-c142 79.160924, 2017/07/13-01:06:39        ">
   <rdf:RDF xmlns:rdf="http://www.w3.org/1999/02/22-rdf-syntax-ns#">
      <rdf:Description rdf:about=""/>
   </rdf:RDF>
</x:xmpmeta>
                                                                                                    
                                                                                                    
                                                                                                    
                                                                                                    
                                                                                                    
                                                                                                    
                                                                                                    
                                                                                                    
                                                                                                    
                                                                                                    
                                                                                                    
                                                                                                    
                                                                                                    
                                                                                                    
                                                                                                    
                                                                                                    
                                                                                                    
                                                                                                    
                                                                                                    
                                                                                                    
                           
<?xpacket end="w"?></metadata>
<defs>
    <style>
      .cls-1 {
        fill: #3ca3e0;
        fill-rule: evenodd;
      }
    </style>
  </defs>
  <path id="Forma_1_copy_2" data-name="Forma 1 copy 2" class="cls-1" d="M1029.62,3942.09l-19.32-12.41a0.828,0.828,0,0,0-.9,1.39l19.04,12.24H1024l-21.67-13.93a2.262,2.262,0,0,0-2.425,0l-21.667,13.93H973.8l27.32-17.56,3.87,2.49a0.832,0.832,0,0,0,.9-1.4l-3.87-2.48a1.674,1.674,0,0,0-1.8,0l-27.6,17.73a1.557,1.557,0,0,0,.844,2.87h4.187v5.37a1.371,1.371,0,0,0,1.091,1.34v1.46a1.371,1.371,0,0,0,1.375,1.37h0.114v10.16a0.83,0.83,0,1,0,1.66,0v-10.99a0.829,0.829,0,0,0-.83-0.83H980.4v-1.14h5.88v1.14h-0.658a0.829,0.829,0,0,0-.83.83v18.32a0.829,0.829,0,0,0,.83.83h0.658v1.24H980.4v-1.24h0.659a0.829,0.829,0,0,0,.83-0.83v-2.12a0.83,0.83,0,1,0-1.66,0v1.29h-0.114a1.378,1.378,0,0,0-1.375,1.37v1.46a1.382,1.382,0,0,0-1.091,1.35v1.67h-2.94a1.667,1.667,0,0,0-1.664,1.66v1.75a1.667,1.667,0,0,0,1.664,1.66h52.819a1.662,1.662,0,0,0,1.66-1.66v-1.75a1.662,1.662,0,0,0-1.66-1.66h-2.94v-1.67a1.384,1.384,0,0,0-1.09-1.35v-1.46a1.381,1.381,0,0,0-1.38-1.37h-0.11V3954.5h0.11a1.374,1.374,0,0,0,1.38-1.37v-1.46a1.373,1.373,0,0,0,1.09-1.34v-5.37h4.18A1.56,1.56,0,0,0,1029.62,3942.09Zm-28.82-11.31a0.574,0.574,0,0,1,.64,0l19.49,12.53H981.306Zm-21.488,14.18h43.618v2.03H979.312v-2.03Zm26.408,29.03v-1.46a1.379,1.379,0,0,0-1.37-1.37h-0.12V3954.5h0.12a1.372,1.372,0,0,0,1.37-1.37v-1.46a1.373,1.373,0,0,0,1.09-1.34v-1.68h6.4v1.68a1.373,1.373,0,0,0,1.09,1.34v1.46a1.366,1.366,0,0,0,1.37,1.37h0.12v16.66h-0.12a1.372,1.372,0,0,0-1.37,1.37v1.46a1.384,1.384,0,0,0-1.09,1.35v1.67h-6.4v-1.67A1.384,1.384,0,0,0,1005.72,3973.99Zm-17.778,0v-1.46a1.377,1.377,0,0,0-1.374-1.37h-0.114V3954.5h0.114a1.37,1.37,0,0,0,1.374-1.37v-1.46a1.371,1.371,0,0,0,1.091-1.34v-1.68h6.4v1.68a1.371,1.371,0,0,0,1.091,1.34v1.46a1.37,1.37,0,0,0,1.374,1.37h0.114v16.66h-0.114a1.377,1.377,0,0,0-1.374,1.37v1.46a1.382,1.382,0,0,0-1.091,1.35v1.67h-6.4v-1.67A1.382,1.382,0,0,0,987.942,3973.99Zm15.458-1.17h0.66v1.24h-5.88v-1.24h0.658a0.829,0.829,0,0,0,.83-0.83v-18.32a0.829,0.829,0,0,0-.83-0.83H998.18v-1.14h5.88v1.14h-0.66a0.828,0.828,0,0,0-.83.83v18.32A0.828,0.828,0,0,0,1003.4,3972.82Zm-6.05-22.78h-0.261v-1.39h8.061v1.39h-7.8Zm-0.261,25.64a0.732,0.732,0,0,0,.257.04h7.544a0.746,0.746,0,0,0,.26-0.04v1.33h-8.061v-1.33Zm-17.517-25.64h-0.26v-1.39h8.061v1.39h-7.8Zm-0.26,25.64a0.749,0.749,0,0,0,.26.04h7.54a0.755,0.755,0,0,0,.261-0.04v1.33h-8.061v-1.33h0Zm48.218,2.99v1.75H974.707l0-1.75h52.819Zm-4.87-2.95a0.766,0.766,0,0,0,.27-0.04v1.33h-8.06v-1.33a0.71,0.71,0,0,0,.26.04h7.53Zm-6.04-22.88h-0.66v-1.14h5.88v1.14h-0.66a0.828,0.828,0,0,0-.83.83v18.32a0.828,0.828,0,0,0,.83.83h0.66v1.24h-5.88v-1.24h0.66a0.834,0.834,0,0,0,.83-0.83v-18.32A0.834,0.834,0,0,0,1016.62,3952.84Zm6.31-2.8h-8.06v-1.39h8.06v1.39h0Zm-21.46-13.24v-2.59a7.246,7.246,0,0,1,1.53.48,0.7,0.7,0,0,0,.56-0.73c0-.63-1.22-0.89-2.09-0.92v-0.34a0.365,0.365,0,0,0-.38-0.3,0.335,0.335,0,0,0-.37.3v0.37a2.361,2.361,0,0,0-2.428,2.37c0,1.63,1.277,2.09,2.428,2.5v2.99c-1.3-.1-1.649-0.99-2.071-0.99a0.743,0.743,0,0,0-.587.73c0,0.62,1.073,1.48,2.658,1.5h0v0.4a0.334,0.334,0,0,0,.37.29,0.367,0.367,0,0,0,.38-0.29v-0.44a2.466,2.466,0,0,0,2.32-2.62C1003.79,3937.77,1002.58,3937.21,1001.47,3936.8Zm-0.68-.24a1.4,1.4,0,0,1-1.221-1.25,1.144,1.144,0,0,1,1.221-1.07v2.32Zm0.6,4.35v-2.69a1.491,1.491,0,0,1,1.13,1.43A1.222,1.222,0,0,1,1001.39,3940.91Z" transform="translate(-971.906 -3924.09)"/>
</svg>
