<?xml version="1.0" encoding="UTF-8"?>
<!DOCTYPE svg PUBLIC "-//W3C//DTD SVG 1.1//EN" "http://www.w3.org/Graphics/SVG/1.1/DTD/svg11.dtd">
<!-- Creator: CorelDRAW X8 -->
<svg xmlns="http://www.w3.org/2000/svg" xml:space="preserve" width="2730px" height="821px" version="1.1" style="shape-rendering:geometricPrecision; text-rendering:geometricPrecision; image-rendering:optimizeQuality; fill-rule:evenodd; clip-rule:evenodd"
viewBox="0 0 2730 821"
 xmlns:xlink="http://www.w3.org/1999/xlink">
 <defs>
  <style type="text/css">
   <![CDATA[
    .fil0 {fill:#6AEBEB}
    .fil1 {fill:#FEFEFE;fill-rule:nonzero}
   ]]>
  </style>
 </defs>
 <g id="Слой_x0020_1">
  <metadata id="CorelCorpID_0Corel-Layer"/>
  <polygon class="fil0" points="615,353 871,0 641,393 775,600 718,600 613,437 344,821 587,397 464,206 520,206 "/>
  <path class="fil1" d="M1025 552l-37 -94 -119 0 -36 94 -35 0 117 -297 29 0 116 297 -35 0zm-48 -125l-34 -92c-5,-11 -9,-26 -14,-42 -3,12 -7,27 -13,42l-35 92 96 0zm159 2l0 123 -35 0 0 -296 81 0c37,0 64,7 81,21 17,14 26,35 26,63 0,39 -20,66 -60,79l81 133 -41 0 -72 -123 -61 0zm0 -29l47 0c24,0 42,-5 53,-15 12,-9 17,-24 17,-43 0,-20 -5,-34 -17,-43 -12,-8 -30,-13 -56,-13l-44 0 0 114zm352 -3l101 0 0 144c-16,5 -32,9 -48,12 -16,2 -35,4 -56,4 -45,0 -80,-14 -105,-40 -25,-27 -38,-64 -38,-113 0,-30 7,-57 19,-81 12,-23 30,-40 53,-53 24,-12 51,-18 82,-18 32,0 61,6 88,17l-13 31c-27,-12 -53,-17 -77,-17 -36,0 -65,10 -85,32 -20,21 -30,51 -30,89 0,40 10,71 29,91 20,21 48,31 86,31 21,0 41,-2 60,-7l0 -91 -66 0 0 -31zm206 32l0 123 -34 0 0 -296 81 0c37,0 63,7 81,21 17,14 26,35 26,63 0,39 -20,66 -60,79l81 133 -41 0 -72 -123 -62 0zm0 -29l48 0c24,0 42,-5 53,-15 11,-9 17,-24 17,-43 0,-20 -6,-34 -17,-43 -12,-8 -30,-13 -56,-13l-45 0 0 114zm480 4c0,47 -12,85 -36,112 -24,27 -57,41 -100,41 -44,0 -78,-14 -101,-40 -24,-27 -36,-65 -36,-113 0,-49 12,-86 36,-113 24,-26 57,-39 101,-39 43,0 76,13 100,40 24,27 36,64 36,112zm-236 0c0,40 8,70 25,91 17,21 42,31 75,31 33,0 58,-10 74,-31 17,-20 25,-51 25,-91 0,-40 -8,-70 -25,-91 -16,-20 -41,-31 -74,-31 -33,0 -58,11 -75,31 -17,21 -25,51 -25,91zm526 -148l0 192c0,34 -10,60 -31,80 -20,19 -48,29 -84,29 -36,0 -63,-10 -83,-30 -19,-19 -29,-46 -29,-80l0 -191 34 0 0 193c0,25 7,44 21,57 13,14 33,20 59,20 25,0 44,-6 58,-20 13,-13 20,-32 20,-57l0 -193 35 0zm266 86c0,30 -10,53 -31,70 -20,16 -49,24 -88,24l-34 0 0 116 -35 0 0 -296 77 0c74,0 111,29 111,86zm-153 64l31 0c30,0 52,-5 66,-14 14,-10 20,-26 20,-48 0,-19 -6,-34 -19,-44 -13,-9 -33,-14 -60,-14l-38 0 0 120zm-2577 146l0 -296 34 0 0 265 131 0 0 31 -165 0zm435 -296l0 192c0,34 -10,60 -30,80 -21,19 -49,29 -85,29 -35,0 -63,-10 -82,-30 -20,-19 -30,-46 -30,-80l0 -191 35 0 0 193c0,25 7,44 20,57 14,14 33,20 60,20 25,0 44,-6 57,-20 14,-13 21,-32 21,-57l0 -193 34 0z"/>
  <path class="fil1" d="M1 129l0 -128 25 0 30 91c3,8 5,14 6,19 2,-5 4,-12 7,-21l31 -89 23 0 0 128 -17 0 0 -107 -37 107 -15 0 -37 -109 0 109 -16 0zm135 0l49 -128 18 0 52 128 -19 0 -15 -39 -54 0 -13 39 -18 0zm36 -53l44 0 -13 -35c-4,-11 -7,-20 -10,-27 -1,9 -4,17 -7,25l-14 37zm97 53l0 -128 44 0c9,0 17,1 22,2 8,2 14,5 19,9 7,6 12,13 15,22 3,9 5,19 5,30 0,10 -1,19 -3,26 -3,8 -5,14 -9,19 -4,5 -7,9 -12,11 -4,3 -9,5 -15,7 -6,1 -13,2 -20,2l-46 0zm17 -15l27 0c8,0 15,-1 20,-2 4,-2 8,-4 11,-7 4,-4 7,-9 9,-16 3,-7 4,-15 4,-25 0,-13 -3,-24 -7,-31 -4,-7 -10,-12 -16,-14 -4,-2 -12,-3 -22,-3l-26 0 0 98zm112 15l0 -128 92 0 0 15 -75 0 0 39 70 0 0 15 -70 0 0 44 78 0 0 15 -95 0zm171 0l0 -128 17 0 0 128 -17 0zm46 0l0 -128 18 0 67 100 0 -100 16 0 0 128 -18 0 -67 -100 0 100 -16 0z"/>
 </g>
</svg>
