<svg xmlns="http://www.w3.org/2000/svg" width="23" height="21.47" viewBox="0 0 23 21.47">
  <metadata><?xpacket begin="﻿" id="W5M0MpCehiHzreSzNTczkc9d"?>
<x:xmpmeta xmlns:x="adobe:ns:meta/" x:xmptk="Adobe XMP Core 5.6-c142 79.160924, 2017/07/13-01:06:39        ">
   <rdf:RDF xmlns:rdf="http://www.w3.org/1999/02/22-rdf-syntax-ns#">
      <rdf:Description rdf:about=""/>
   </rdf:RDF>
</x:xmpmeta>
                                                                                                    
                                                                                                    
                                                                                                    
                                                                                                    
                                                                                                    
                                                                                                    
                                                                                                    
                                                                                                    
                                                                                                    
                                                                                                    
                                                                                                    
                                                                                                    
                                                                                                    
                                                                                                    
                                                                                                    
                                                                                                    
                                                                                                    
                                                                                                    
                                                                                                    
                                                                                                    
                           
<?xpacket end="w"?></metadata>
<defs>
    <style>
      .cls-1 {
        fill: #4d5c74;
        fill-rule: evenodd;
      }
    </style>
  </defs>
  <path class="cls-1" d="M1102.98,8491.88a0.43,0.43,0,0,0-.02-0.12,0.546,0.546,0,0,0-.23-0.33l-3.29-2.29v-2.45a0.6,0.6,0,0,0-.59-0.59h-3.79l-3.22-2.24a0.587,0.587,0,0,0-.67,0l-3.25,2.24h-3.77a0.6,0.6,0,0,0-.59.59v2.43l-3.31,2.28a0.579,0.579,0,0,0-.25.48v0.01l0.02,12.76a0.581,0.581,0,0,0,.59.59h0l21.8-.03a0.585,0.585,0,0,0,.59-0.59Zm-3.54-1.3,1.88,1.31-1.88,1.3v-2.61Zm-7.94-5.52,1.5,1.04h-3Zm-6.76,2.22h13.52v6.73l-4.54,3.16-1.85-1.44h-0.01a0.585,0.585,0,0,0-.71,0l-1.87,1.45-4.54-3.14v-6.76Zm-1.18,3.27v2.68l-1.94-1.34Zm-2.38,2.46,7.13,4.93-7.12,5.51Zm1.15,11.05,9.18-7.12,9.14,7.1Zm12.37-6.14,7.11-4.94,0.01,10.47Zm0.79-8.28h-7.98a0.585,0.585,0,1,0,0,1.17h7.98A0.585,0.585,0,1,0,1095.49,8489.64Zm0,3.06h-7.98a0.591,0.591,0,0,0-.59.59,0.6,0.6,0,0,0,.59.59h7.98a0.6,0.6,0,0,0,.59-0.59A0.591,0.591,0,0,0,1095.49,8492.7Z" transform="translate(-1080 -8483.78)"/>
</svg>
