<svg xmlns="http://www.w3.org/2000/svg" width="64" height="40.5" viewBox="0 0 64 40.5">
  <metadata><?xpacket begin="﻿" id="W5M0MpCehiHzreSzNTczkc9d"?>
<x:xmpmeta xmlns:x="adobe:ns:meta/" x:xmptk="Adobe XMP Core 5.6-c142 79.160924, 2017/07/13-01:06:39        ">
   <rdf:RDF xmlns:rdf="http://www.w3.org/1999/02/22-rdf-syntax-ns#">
      <rdf:Description rdf:about=""/>
   </rdf:RDF>
</x:xmpmeta>
                                                                                                    
                                                                                                    
                                                                                                    
                                                                                                    
                                                                                                    
                                                                                                    
                                                                                                    
                                                                                                    
                                                                                                    
                                                                                                    
                                                                                                    
                                                                                                    
                                                                                                    
                                                                                                    
                                                                                                    
                                                                                                    
                                                                                                    
                                                                                                    
                                                                                                    
                                                                                                    
                           
<?xpacket end="w"?></metadata>
<defs>
    <style>
      .cls-1 {
        fill: #3ca3e0;
        fill-rule: evenodd;
      }
    </style>
  </defs>
  <path class="cls-1" d="M629.52,3997.42l-1.658-6.63a1.007,1.007,0,0,0,.793-0.98v-1.07a4.215,4.215,0,0,0-4.208-4.21H616.9v-2.21a2.074,2.074,0,0,0-2.071-2.07H576.346a2.074,2.074,0,0,0-2.071,2.07v18.18a1,1,0,0,0,2,0v-18.18a0.059,0.059,0,0,1,.066-0.06h38.481a0.059,0.059,0,0,1,.066.06v18.18a1,1,0,0,0,2,0v-1.14h11.826a3.279,3.279,0,0,1,3.114,2.28h-3.116a1,1,0,0,0-1,1v2.14a3.144,3.144,0,0,0,3.14,3.14H632v4.41h-2.621a6.342,6.342,0,0,0-12,0H616.9v-7.55a1,1,0,1,0-2,0v7.55H594.1a6.342,6.342,0,0,0-12,0h-5.761a0.068,0.068,0,0,1-.066-0.07v-2.2h4.342a1.005,1.005,0,0,0,0-2.01H571a1.005,1.005,0,0,0,0,2.01h3.274v2.2a2.074,2.074,0,0,0,2.071,2.07h5.413c0,0.03,0,.05,0,0.07a6.347,6.347,0,1,0,12.693,0c0-.02,0-0.04,0-0.07h22.584c0,0.03,0,.05,0,0.07a6.347,6.347,0,1,0,12.693,0c0-.02,0-0.04,0-0.07H633a1,1,0,0,0,1-1v-10.69A5.283,5.283,0,0,0,629.52,3997.42ZM616.9,3986.53h7.549a2.209,2.209,0,0,1,2.2,2.21v0.06H616.9v-2.27Zm0,10.83v-6.55h8.9l1.637,6.55H616.9ZM588.1,4018.74a4.34,4.34,0,1,1,4.343-4.34A4.342,4.342,0,0,1,588.1,4018.74Zm35.274,0a4.34,4.34,0,1,1,4.342-4.34A4.342,4.342,0,0,1,623.378,4018.74ZM632,4005.91H630.86a1.137,1.137,0,0,1-1.136-1.13v-1.14H632v2.27h0Zm-43.892,6.42a2.07,2.07,0,1,0,2.071,2.07A2.074,2.074,0,0,0,588.1,4012.33Zm35.274,0a2.07,2.07,0,1,0,2.071,2.07A2.074,2.074,0,0,0,623.378,4012.33Zm-11.758-4.28H596.655a1.005,1.005,0,0,0,0,2.01H611.62A1.005,1.005,0,0,0,611.62,4008.05Zm-25.653-4.28H573.14a1.005,1.005,0,0,0,0,2.01h12.827A1.005,1.005,0,0,0,585.967,4003.77Zm18.879-13.6a1,1,0,0,0-1.417,0l-8.911,8.91-4.636-4.64a1,1,0,0,0-1.417,1.42l5.344,5.35a1.01,1.01,0,0,0,1.417,0l9.62-9.63A0.992,0.992,0,0,0,604.846,3990.17Z" transform="translate(-570 -3980.25)"/>
</svg>
