<svg xmlns="http://www.w3.org/2000/svg" width="42.72" height="52.78" viewBox="0 0 42.72 52.78">
  <metadata><?xpacket begin="﻿" id="W5M0MpCehiHzreSzNTczkc9d"?>
<x:xmpmeta xmlns:x="adobe:ns:meta/" x:xmptk="Adobe XMP Core 5.6-c142 79.160924, 2017/07/13-01:06:39        ">
   <rdf:RDF xmlns:rdf="http://www.w3.org/1999/02/22-rdf-syntax-ns#">
      <rdf:Description rdf:about=""/>
   </rdf:RDF>
</x:xmpmeta>
                                                                                                    
                                                                                                    
                                                                                                    
                                                                                                    
                                                                                                    
                                                                                                    
                                                                                                    
                                                                                                    
                                                                                                    
                                                                                                    
                                                                                                    
                                                                                                    
                                                                                                    
                                                                                                    
                                                                                                    
                                                                                                    
                                                                                                    
                                                                                                    
                                                                                                    
                                                                                                    
                           
<?xpacket end="w"?></metadata>
<defs>
    <style>
      .cls-1 {
        fill: #3ca3e0;
        fill-rule: evenodd;
      }
    </style>
  </defs>
  <path class="cls-1" d="M1023.31,3696.92l-17.17-5.07a7.086,7.086,0,0,0-4.08,0l-17.169,5.07a3.008,3.008,0,0,0-2.153,2.88v14.22a32.468,32.468,0,0,0,20.232,30.09,2.964,2.964,0,0,0,1.13.23,3.014,3.014,0,0,0,1.14-.23,32.49,32.49,0,0,0,20.23-30.09V3699.8A3.012,3.012,0,0,0,1023.31,3696.92Zm-0.25,17.1a30.073,30.073,0,0,1-18.73,27.87,0.61,0.61,0,0,1-.46,0,30.094,30.094,0,0,1-18.73-27.87V3699.8a0.609,0.609,0,0,1,.43-0.58l17.17-5.07a4.854,4.854,0,0,1,1.36-.19,4.8,4.8,0,0,1,1.36.19l17.17,5.07a0.6,0.6,0,0,1,.43.58v14.22h0Zm-5.65-11.79-12.8-3.78a1.771,1.771,0,0,0-1.02,0l-12.8,3.78a1.8,1.8,0,0,0-1.292,1.73v10.06a25.554,25.554,0,0,0,4.65,14.76,25.855,25.855,0,0,0,9.118,8.02,1.764,1.764,0,0,0,.83.21,1.8,1.8,0,0,0,.84-0.21,25.9,25.9,0,0,0,9.11-8.02,25.569,25.569,0,0,0,4.65-14.76v-10.06A1.8,1.8,0,0,0,1017.41,3702.23Zm-1.11,11.79a23.275,23.275,0,0,1-12.2,20.5,23.3,23.3,0,0,1-12.2-20.5v-9.61l12.2-3.6,12.2,3.6v9.61Z" transform="translate(-982.75 -3691.56)"/>
</svg>
