<svg xmlns="http://www.w3.org/2000/svg" width="44" height="45.85" viewBox="0 0 44 45.85">
  <metadata><?xpacket begin="﻿" id="W5M0MpCehiHzreSzNTczkc9d"?>
<x:xmpmeta xmlns:x="adobe:ns:meta/" x:xmptk="Adobe XMP Core 5.6-c142 79.160924, 2017/07/13-01:06:39        ">
   <rdf:RDF xmlns:rdf="http://www.w3.org/1999/02/22-rdf-syntax-ns#">
      <rdf:Description rdf:about=""/>
   </rdf:RDF>
</x:xmpmeta>
                                                                                                    
                                                                                                    
                                                                                                    
                                                                                                    
                                                                                                    
                                                                                                    
                                                                                                    
                                                                                                    
                                                                                                    
                                                                                                    
                                                                                                    
                                                                                                    
                                                                                                    
                                                                                                    
                                                                                                    
                                                                                                    
                                                                                                    
                                                                                                    
                                                                                                    
                                                                                                    
                           
<?xpacket end="w"?></metadata>
<defs>
    <style>
      .cls-1 {
        fill: #3ca3e0;
        fill-rule: evenodd;
      }
    </style>
  </defs>
  <path id="Forma_1" data-name="Forma 1" class="cls-1" d="M604.87,3759.6a1.352,1.352,0,0,1,0-1.19l1.71-3.5a3.971,3.971,0,0,0-1.717-5.28l-3.44-1.83a1.357,1.357,0,0,1-.7-0.96l-0.672-3.84a3.975,3.975,0,0,0-4.5-3.26l-3.855.54a1.316,1.316,0,0,1-1.129-.37l-2.8-2.7a3.975,3.975,0,0,0-5.557,0l-2.8,2.7a1.319,1.319,0,0,1-1.13.37l-3.855-.54a3.974,3.974,0,0,0-4.5,3.26l-0.673,3.84a1.357,1.357,0,0,1-.7.96l-3.439,1.83a3.972,3.972,0,0,0-1.718,5.28l1.71,3.5a1.345,1.345,0,0,1,0,1.19l-1.71,3.5a3.972,3.972,0,0,0,1.718,5.28l3.439,1.83a1.357,1.357,0,0,1,.7.96l0.673,3.84a3.983,3.983,0,0,0,3.923,3.31,3.715,3.715,0,0,0,.572-0.05l3.856-.54a1.318,1.318,0,0,1,1.129.37l2.8,2.7a3.956,3.956,0,0,0,5.557,0l2.8-2.7a1.316,1.316,0,0,1,1.129-.37l3.855,0.54a3.975,3.975,0,0,0,4.5-3.26l0.672-3.84a1.359,1.359,0,0,1,.7-0.96l3.44-1.83a3.971,3.971,0,0,0,1.717-5.28Zm-1.247,6.45-3.439,1.82a4,4,0,0,0-2.063,2.84l-0.673,3.84a1.353,1.353,0,0,1-1.521,1.11l-3.855-.55a3.965,3.965,0,0,0-3.338,1.09l-2.8,2.7a1.346,1.346,0,0,1-1.88,0l-2.8-2.7a3.969,3.969,0,0,0-2.769-1.13,3.647,3.647,0,0,0-.569.04l-3.855.55a1.354,1.354,0,0,1-1.521-1.11l-0.673-3.84a3.99,3.99,0,0,0-2.063-2.84l-3.439-1.82a1.35,1.35,0,0,1-.581-1.79l1.71-3.5a3.972,3.972,0,0,0,0-3.51l-1.71-3.5a1.35,1.35,0,0,1,.581-1.79l3.439-1.82a3.99,3.99,0,0,0,2.063-2.84l0.673-3.84a1.354,1.354,0,0,1,1.521-1.11l3.855,0.55a3.965,3.965,0,0,0,3.338-1.09l2.8-2.7a1.348,1.348,0,0,1,1.881,0l2.8,2.7a3.965,3.965,0,0,0,3.338,1.09l3.855-.55a1.354,1.354,0,0,1,1.521,1.11l0.673,3.84a3.99,3.99,0,0,0,2.063,2.84l3.439,1.82a1.35,1.35,0,0,1,.581,1.79l-1.71,3.5a3.972,3.972,0,0,0,0,3.51l1.71,3.5A1.349,1.349,0,0,1,603.623,3766.05Zm-8.967-16.71a1.334,1.334,0,0,0-1.87,0l-17.451,17.46a1.322,1.322,0,1,0,1.87,1.87l17.451-17.46A1.323,1.323,0,0,0,594.656,3749.34Zm-14.949-2.24a4.85,4.85,0,1,0,4.848,4.85A4.857,4.857,0,0,0,579.707,3747.1Zm0,7.06a2.205,2.205,0,1,1,2.2-2.21A2.208,2.208,0,0,1,579.707,3754.16Zm10.577,7.05a4.85,4.85,0,1,0,4.848,4.85A4.851,4.851,0,0,0,590.284,3761.21Zm0,7.05a2.205,2.205,0,1,1,2.2-2.2A2.207,2.207,0,0,1,590.284,3768.26Z" transform="translate(-563 -3736.09)"/>
</svg>
